<?xml version="1.0" encoding="UTF-8"?>
<svg version="1.1" xmlns="http://www.w3.org/2000/svg" width="463" height="204">
<path d="M0 0 C2.53740319 0.97361173 5.07898628 1.93563371 7.62133789 2.89624023 C9.24333692 3.51341103 10.86509108 4.13122583 12.48657227 4.74975586 C13.24277359 5.03625504 13.99897491 5.32275421 14.77809143 5.61793518 C17.92479307 6.83058086 20.63351376 8.02349811 23.45141602 9.90209961 C23.07641602 11.83959961 23.07641602 11.83959961 22.45141602 13.90209961 C21.79141602 14.23209961 21.13141602 14.56209961 20.45141602 14.90209961 C20.37015493 17.63187025 20.31079939 20.35920131 20.26391602 23.08959961 C20.2387793 23.85852539 20.21364258 24.62745117 20.18774414 25.41967773 C20.12559618 30.24650306 20.68608007 32.81483305 23.45141602 36.90209961 C24.17572625 41.11304046 24.12537786 44.75074813 21.95141602 48.46459961 C21.45641602 48.93897461 20.96141602 49.41334961 20.45141602 49.90209961 C16.77524998 49.61931761 14.10541724 49.31085038 10.95141602 47.33959961 C9.13352039 44.38551921 9.30758689 42.38629206 9.79907227 38.99975586 C10.45141602 36.90209961 10.45141602 36.90209961 11.99829102 34.60522461 C13.88486973 31.09578248 13.74986214 28.54667791 13.63891602 24.58959961 C13.6118457 23.3353418 13.58477539 22.08108398 13.55688477 20.78881836 C13.52208008 19.83620117 13.48727539 18.88358398 13.45141602 17.90209961 C10.81141602 18.89209961 8.17141602 19.88209961 5.45141602 20.90209961 C3.82275907 40.32534165 9.48126672 60.08617908 15.56860352 78.38647461 C16.58540214 82.43567268 16.60709722 85.74449561 16.45141602 89.90209961 C15.13141602 89.90209961 13.81141602 89.90209961 12.45141602 89.90209961 C12.45141602 90.89209961 12.45141602 91.88209961 12.45141602 92.90209961 C13.54454102 93.17022461 14.63766602 93.43834961 15.76391602 93.71459961 C21.08681047 95.42875206 21.08681047 95.42875206 22.45141602 97.90209961 C22.78768054 102.02134002 22.14461458 103.92139933 19.75610352 107.30053711 C8.75723658 120.1128373 -9.40338235 132.09632919 -26.48608398 134.27709961 C-42.23218573 133.97493561 -59.37886951 121.09812556 -69.97436523 110.46850586 C-76.06687963 103.87820166 -76.06687963 103.87820166 -76.54858398 99.90209961 C-75.61108398 97.27709961 -75.61108398 97.27709961 -73.54858398 94.90209961 C-70.87423812 93.87552984 -68.39156944 93.41476912 -65.54858398 92.90209961 C-65.54858398 91.91209961 -65.54858398 90.92209961 -65.54858398 89.90209961 C-67.19858398 89.57209961 -68.84858398 89.24209961 -70.54858398 88.90209961 C-70.34104492 88.09514648 -70.13350586 87.28819336 -69.91967773 86.45678711 C-67.4533095 76.73578764 -65.13971278 66.98098791 -62.86108398 57.21459961 C-62.70501678 56.54676453 -62.54894958 55.87892944 -62.38815308 55.19085693 C-59.47694478 43.66905812 -59.47694478 43.66905812 -58.54858398 31.90209961 C-58.62707661 28.05596077 -58.430899 24.65193843 -57.54858398 20.90209961 C-58.3490918 20.66426758 -58.3490918 20.66426758 -59.16577148 20.42163086 C-65.29726701 18.50156046 -70.87317912 15.89975604 -76.54858398 12.90209961 C-76.54858398 11.91209961 -76.54858398 10.92209961 -76.54858398 9.90209961 C-67.81561792 5.75913451 -59.00283635 1.95085706 -50.02514648 -1.62255859 C-48.02017948 -2.42172219 -46.01872001 -3.22926962 -44.01733398 -4.03735352 C-42.72586745 -4.55412999 -41.43420791 -5.07042445 -40.14233398 -5.58618164 C-38.99442383 -6.04549072 -37.84651367 -6.5047998 -36.66381836 -6.97802734 C-24.2562196 -11.43834517 -11.67823267 -4.48404714 0 0 Z M-34.54858398 87.90209961 C-34.87858398 88.56209961 -35.20858398 89.22209961 -35.54858398 89.90209961 C-34.35214966 92.21643691 -34.35214966 92.21643691 -32.67358398 94.71459961 C-30.47365638 98.09634879 -28.86698321 100.82520521 -28.54858398 104.90209961 C-29.20858398 105.56209961 -29.86858398 106.22209961 -30.54858398 106.90209961 C-28.89858398 106.90209961 -27.24858398 106.90209961 -25.54858398 106.90209961 C-24.87247975 105.00961142 -24.2080796 103.11293941 -23.54858398 101.21459961 C-23.17733398 100.15885742 -22.80608398 99.10311523 -22.42358398 98.01538086 C-21.60552864 95.10471073 -21.28936825 92.89928151 -21.54858398 89.90209961 C-23.35974354 88.09094005 -26.16136625 88.52010513 -28.61108398 88.33959961 C-29.71581055 88.25581055 -30.82053711 88.17202148 -31.95874023 88.08569336 C-32.81338867 88.02510742 -33.66803711 87.96452148 -34.54858398 87.90209961 Z " fill="#F2F2F2" transform="translate(111.548583984375,40.097900390625)"/>
<path d="M0 0 C0 0.99 0 1.98 0 3 C1.093125 3.268125 2.18625 3.53625 3.3125 3.8125 C8.63539446 5.52665245 8.63539446 5.52665245 10 8 C10.33626452 12.11924041 9.69319857 14.01929972 7.3046875 17.3984375 C-3.69417943 30.21073769 -21.85479837 42.19422958 -38.9375 44.375 C-54.68360175 44.072836 -71.83028552 31.19602596 -82.42578125 20.56640625 C-88.57480838 13.91497193 -88.57480838 13.91497193 -89 10 C-86.73846154 5.36923077 -86.73846154 5.36923077 -84 4 C-73.98138123 2.9110197 -64.17831744 8.2793974 -55.05078125 11.83203125 C-49.47482012 13.9667462 -43.91465911 16.04602272 -38 17 C-37.8453125 15.515 -37.8453125 15.515 -37.6875 14 C-37.06102968 9.78634348 -36.12407261 5.72814405 -34 2 C-31.6875 0.75 -31.6875 0.75 -29 0 C-26.99384866 -1.32405988 -24.99330842 -2.65668346 -23 -4 C-14.50460571 -6.8317981 -7.90967716 -3.33039038 0 0 Z " fill="#FBFBFB" transform="translate(124,130)"/>
<path d="M0 0 C2.53740319 0.97361173 5.07898628 1.93563371 7.62133789 2.89624023 C9.24333692 3.51341103 10.86509108 4.13122583 12.48657227 4.74975586 C13.24277359 5.03625504 13.99897491 5.32275421 14.77809143 5.61793518 C17.92479307 6.83058086 20.63351376 8.02349811 23.45141602 9.90209961 C23.07641602 11.83959961 23.07641602 11.83959961 22.45141602 13.90209961 C21.79141602 14.23209961 21.13141602 14.56209961 20.45141602 14.90209961 C20.37015493 17.63187025 20.31079939 20.35920131 20.26391602 23.08959961 C20.2387793 23.85852539 20.21364258 24.62745117 20.18774414 25.41967773 C20.12559618 30.24650306 20.68608007 32.81483305 23.45141602 36.90209961 C24.17572625 41.11304046 24.12537786 44.75074813 21.95141602 48.46459961 C21.45641602 48.93897461 20.96141602 49.41334961 20.45141602 49.90209961 C16.77524998 49.61931761 14.10541724 49.31085038 10.95141602 47.33959961 C9.13352039 44.38551921 9.30758689 42.38629206 9.79907227 38.99975586 C10.45141602 36.90209961 10.45141602 36.90209961 11.99829102 34.60522461 C13.88486973 31.09578248 13.74986214 28.54667791 13.63891602 24.58959961 C13.6118457 23.3353418 13.58477539 22.08108398 13.55688477 20.78881836 C13.52208008 19.83620117 13.48727539 18.88358398 13.45141602 17.90209961 C11.62849935 18.61824544 9.80558268 19.33439128 7.98266602 20.05053711 C5.45141602 20.90209961 5.45141602 20.90209961 1.68188477 21.77709961 C-1.97515077 22.66476265 -5.22312132 23.99794677 -8.63354492 25.56982422 C-20.20917169 30.84014848 -28.46199958 31.60552339 -40.5456543 27.12304688 C-43.25713505 26.06756325 -45.94425544 24.96504107 -48.63061523 23.84741211 C-51.64270193 22.60585744 -54.55268613 21.57133901 -57.72436523 20.82788086 C-61.73212753 19.8576667 -65.13367846 18.58003656 -68.92358398 16.96459961 C-70.12756836 16.46057617 -71.33155273 15.95655273 -72.57202148 15.43725586 C-75.54858398 13.90209961 -75.54858398 13.90209961 -77.54858398 10.90209961 C-73.84570604 8.55764839 -70.12061656 6.78725354 -66.06811523 5.12475586 C-65.45522141 4.87213486 -64.84232758 4.61951385 -64.21086121 4.35923767 C-62.26245584 3.55726429 -60.31181379 2.76089975 -58.36108398 1.96459961 C-57.07122354 1.43435787 -55.7815087 0.90376178 -54.49194336 0.37280273 C-51.9939895 -0.65459729 -49.49390209 -1.67619525 -46.99243164 -2.69506836 C-44.84898222 -3.56819046 -42.70762743 -4.44649556 -40.56958008 -5.33276367 C-39.70026855 -5.68967285 -38.83095703 -6.04658203 -37.93530273 -6.41430664 C-37.19884521 -6.71925049 -36.4623877 -7.02419434 -35.70361328 -7.33837891 C-23.95410524 -11.47939165 -11.01363154 -4.22886275 0 0 Z " fill="#FCFCFC" transform="translate(111.548583984375,40.097900390625)"/>
<path d="M0 0 C1.07894531 0.16757813 2.15789062 0.33515625 3.26953125 0.5078125 C9.74793729 1.32100154 16.26322084 0.97463115 22.77539062 0.78515625 C31.70037376 0.65673923 31.70037376 0.65673923 36 4 C37.57117634 4.73490506 39.15431097 5.44495803 40.75 6.125 C44.89595376 7.89595376 44.89595376 7.89595376 46 9 C46.54967619 15.73353327 44.99597978 20.66878001 42.5 26.875 C41.84119397 28.55889805 41.18481777 30.24374942 40.53125 31.9296875 C40.23798828 32.66429199 39.94472656 33.39889648 39.64257812 34.15576172 C38.89032506 35.98927749 38.89032506 35.98927749 39 38 C41.39503687 39.12672175 43.7909871 40.25142558 46.1875 41.375 C47.19780273 41.85066406 47.19780273 41.85066406 48.22851562 42.3359375 C51.78222638 44.00011424 55.33496248 45.59091761 59 47 C59 47.66 59 48.32 59 49 C54.44535196 49.38762962 51.63202303 49.01285513 47.5 47 C43.42311587 45.06848129 40.57448413 44.33462049 36 45 C32.18364648 46.49032784 28.90921052 48.09078948 26 51 C24.68 51 23.36 51 22 51 C21.67 50.34 21.34 49.68 21 49 C19.22882813 48.94392578 19.22882813 48.94392578 17.421875 48.88671875 C15.86455212 48.82104851 14.30726186 48.75460153 12.75 48.6875 C11.97269531 48.66494141 11.19539063 48.64238281 10.39453125 48.61914062 C5.88603841 48.40720293 3.50929487 48.02277899 0 45 C-5.37959746 43.96857342 -10.23192802 45.10064801 -15.17578125 47.24609375 C-17.09265767 48.03829321 -18.98003408 48.54071415 -21 49 C-19.51732005 44.92921009 -17.36989623 43.86071954 -13.5625 42 C-9.70824735 40.11136488 -7.32240136 38.6528618 -5 35 C-5.24234375 34.50185791 -5.4846875 34.00371582 -5.734375 33.49047852 C-6.84113689 31.18942477 -7.92051339 28.87646708 -9 26.5625 C-9.3815625 25.77939453 -9.763125 24.99628906 -10.15625 24.18945312 C-12.61964273 18.84477068 -14.21798586 13.91017566 -13 8 C-10.36743169 4.80957792 -7.22732576 4.42803851 -3.25 3.8125 C-2.26515625 3.65394531 -1.2803125 3.49539062 -0.265625 3.33203125 C0.85585937 3.16767578 0.85585937 3.16767578 2 3 C2 2.34 2 1.68 2 1 C1.34 0.67 0.68 0.34 0 0 Z " fill="#474747" transform="translate(68,81)"/>
<path d="M0 0 C1.77206192 0.00015919 3.54412846 0.00585754 5.31616211 0.01586914 C6.24698105 0.01728409 7.17779999 0.01869904 8.13682556 0.02015686 C11.12241777 0.02577367 14.10793615 0.03832899 17.09350586 0.05102539 C19.11238499 0.05603823 21.13126529 0.06060151 23.15014648 0.06469727 C28.11046158 0.07574856 33.07072118 0.09302444 38.03100586 0.11352539 C38.22578325 1.73766917 38.41160044 3.36288962 38.59350586 4.98852539 C38.75012695 6.3459082 38.75012695 6.3459082 38.90991211 7.73071289 C39.03100586 10.11352539 39.03100586 10.11352539 38.03100586 12.11352539 C28.79100586 12.44352539 19.55100586 12.77352539 10.03100586 13.11352539 C9.70100586 15.75352539 9.37100586 18.39352539 9.03100586 21.11352539 C9.81862305 21.10192383 10.60624023 21.09032227 11.41772461 21.07836914 C19.34207973 21.0127236 27.14067343 21.39035253 35.03100586 22.11352539 C35.72684603 26.13393525 36.20101556 29.19615958 35.03100586 33.11352539 C26.34227568 34.0046772 17.7624005 34.22977177 9.03100586 34.11352539 C9.03100586 38.07352539 9.03100586 42.03352539 9.03100586 46.11352539 C18.60100586 46.11352539 28.17100586 46.11352539 38.03100586 46.11352539 C38.52600586 51.06352539 38.52600586 51.06352539 39.03100586 56.11352539 C37.08236661 58.06216464 34.13291866 57.24271279 31.53979492 57.25247192 C30.62939453 57.25044769 29.71899414 57.24842346 28.78100586 57.24633789 C27.85255859 57.24729462 26.92411133 57.24825134 25.9675293 57.24923706 C24.00040621 57.24991894 22.0332809 57.24806411 20.06616211 57.24389648 C17.0439756 57.23854834 14.02193771 57.24384121 10.99975586 57.25024414 C9.09350553 57.24958336 7.18725529 57.2483022 5.28100586 57.24633789 C3.91540527 57.24937424 3.91540527 57.24937424 2.5222168 57.25247192 C-3.85404445 57.22847508 -3.85404445 57.22847508 -4.96899414 56.11352539 C-5.06781007 54.40033593 -5.09698383 52.68307736 -5.09838867 50.96704102 C-5.10311691 49.32028381 -5.10311691 49.32028381 -5.10794067 47.64025879 C-5.10591644 46.44549927 -5.10389221 45.25073975 -5.10180664 44.01977539 C-5.10276337 42.80277954 -5.10372009 41.58578369 -5.10470581 40.33190918 C-5.10538786 37.7527664 -5.10353186 35.17362192 -5.09936523 32.59448242 C-5.09401737 28.63073904 -5.09930943 24.66710897 -5.10571289 20.70336914 C-5.10505211 18.20467097 -5.10377096 15.70597287 -5.10180664 13.20727539 C-5.10383087 12.01251587 -5.1058551 10.81775635 -5.10794067 9.58679199 C-5.10478851 8.48895386 -5.10163635 7.39111572 -5.09838867 6.26000977 C-5.09759308 5.28817749 -5.09679749 4.31634521 -5.09597778 3.31506348 C-4.8724019 -0.56111146 -4.10901563 0.11753043 0 0 Z " fill="#FCFCFC" transform="translate(159.968994140625,73.886474609375)"/>
<path d="M0 0 C6.14671611 6.47022749 5.20469493 13.38725036 5.05908203 21.77197266 C4.61864025 38.38135975 4.61864025 38.38135975 3 40 C-0.04304432 40.07266972 -3.07403966 39.99616309 -6.1171875 39.9375 C-9.07100267 39.85945053 -9.07100267 39.85945053 -12 41 C-26.43064288 42.30513522 -26.43064288 42.30513522 -31.453125 39.75390625 C-34.40619536 36.65031532 -35.33273135 33.67385955 -35.5625 29.4375 C-35.25142815 25.37974048 -34.40065427 22.36091598 -32 19 C-27.3952507 16.28846841 -22.77207292 15.00851966 -17.625 13.8125 C-16.52091797 13.54663086 -16.52091797 13.54663086 -15.39453125 13.27539062 C-13.5979095 12.84373475 -11.79916166 12.420944 -10 12 C-9.67 10.68 -9.34 9.36 -9 8 C-12.05355003 7.70063235 -14.95613415 7.55998538 -18 8 C-18.804375 8.825 -19.60875 9.65 -20.4375 10.5 C-23.46325143 13.45195261 -24.2444441 13.34098779 -28.3125 13.3125 C-29.87642824 13.23259126 -31.43997572 13.1363128 -33 13 C-33.60577378 5.85186938 -33.60577378 5.85186938 -31 2.1875 C-22.19537319 -4.23254038 -9.54778937 -5.89118919 0 0 Z M-22 25 C-22.33380814 28.62563814 -22.33380814 28.62563814 -22 32 C-19.14675563 33.42662219 -17.16545451 33.31033868 -14 33 C-11.0684887 31.5714939 -11.0684887 31.5714939 -9 29 C-8.10944264 25.35817665 -8.10944264 25.35817665 -8 22 C-9.58246707 21.91846067 -11.16616273 21.86056443 -12.75 21.8125 C-13.63171875 21.77769531 -14.5134375 21.74289063 -15.421875 21.70703125 C-18.51517432 22.05854254 -19.8285133 22.78830058 -22 25 Z " fill="#F9F9F9" transform="translate(329,91)"/>
<path d="M0 0 C4.858296 3.62897009 8.50340491 7.51426582 9.3984375 13.66015625 C9.4268793 16.64654552 9.35198858 19.48529867 8.9296875 22.44140625 C7.9296875 23.44140625 7.9296875 23.44140625 5.33764648 23.55493164 C4.21173096 23.54969482 3.08581543 23.54445801 1.92578125 23.5390625 C0.71083984 23.53583984 -0.50410156 23.53261719 -1.75585938 23.52929688 C-3.03525391 23.52091797 -4.31464844 23.51253906 -5.6328125 23.50390625 C-6.91607422 23.49939453 -8.19933594 23.49488281 -9.52148438 23.49023438 C-12.70447272 23.4784017 -15.88737012 23.46191693 -19.0703125 23.44140625 C-17.79089126 26.43819708 -17.79089126 26.43819708 -16.0703125 29.44140625 C-12.715506 30.6254556 -10.45616799 31.04286753 -7.1171875 29.59375 C-5.78463673 28.86189633 -4.45781797 28.11951602 -3.13671875 27.3671875 C0.27435799 25.83897353 3.24511038 26.17822217 6.9296875 26.44140625 C7.6796875 28.00390625 7.6796875 28.00390625 7.9296875 30.44140625 C5.92918407 34.66469126 4.19714772 38.25000776 -0.0703125 40.44140625 C-6.69565865 42.75611923 -13.22288401 42.90871236 -20.0703125 41.44140625 C-25.38042167 38.73807794 -28.71327892 35.2233251 -31.3203125 29.87890625 C-33.1028645 21.70887623 -32.8804186 13.93023547 -29.0703125 6.44140625 C-21.68796561 -2.30084665 -10.37994102 -5.9820142 0 0 Z M-17.5078125 9.75390625 C-19.32162273 12.35554192 -19.32162273 12.35554192 -19.0703125 15.44140625 C-14.1203125 15.44140625 -9.1703125 15.44140625 -4.0703125 15.44140625 C-3.7403125 14.45140625 -3.4103125 13.46140625 -3.0703125 12.44140625 C-5.83815333 9.08644767 -7.27825077 7.58036445 -11.6328125 6.81640625 C-15.19882223 7.14079921 -15.19882223 7.14079921 -17.5078125 9.75390625 Z " fill="#FAFAFA" transform="translate(281.0703125,90.55859375)"/>
<path d="M0 0 C3.7346596 1.43398322 6.07520115 2.96962843 8.0390625 6.4609375 C9.23318596 10.04330787 9.16864113 12.93835207 9.171875 16.71875 C9.17283173 17.42240692 9.17378845 18.12606384 9.17477417 18.8510437 C9.17545375 20.33542979 9.17361495 21.81981887 9.16943359 23.30419922 C9.16406617 25.58437708 9.16939421 27.86435939 9.17578125 30.14453125 C9.17512074 31.58593794 9.17384015 33.0273445 9.171875 34.46875 C9.17074707 35.78504395 9.16961914 37.10133789 9.16845703 38.45751953 C9.0390625 41.4609375 9.0390625 41.4609375 8.0390625 42.4609375 C6.18618748 42.53320252 4.33072372 42.5447497 2.4765625 42.5234375 C1.46464844 42.51441406 0.45273437 42.50539062 -0.58984375 42.49609375 C-1.76353516 42.47869141 -1.76353516 42.47869141 -2.9609375 42.4609375 C-4.40932328 35.57516905 -4.27052987 28.52793964 -4.390625 21.51953125 C-4.4215625 20.51535156 -4.4525 19.51117188 -4.484375 18.4765625 C-4.50419434 17.56165039 -4.52401367 16.64673828 -4.54443359 15.70410156 C-4.68187988 14.96385742 -4.81932617 14.22361328 -4.9609375 13.4609375 C-8.18237026 11.31331566 -9.2204842 10.8998695 -12.9609375 11.4609375 C-16.03958014 14.60249518 -16.40604397 17.198468 -16.65625 21.50390625 C-16.73230469 22.65955078 -16.80835938 23.81519531 -16.88671875 25.00585938 C-16.95246094 26.20791016 -17.01820313 27.40996094 -17.0859375 28.6484375 C-17.23060514 31.03799164 -17.37884132 33.42733336 -17.53125 35.81640625 C-17.62043701 37.40424927 -17.62043701 37.40424927 -17.71142578 39.02416992 C-17.9609375 41.4609375 -17.9609375 41.4609375 -18.9609375 42.4609375 C-20.81381252 42.53320252 -22.66927628 42.5447497 -24.5234375 42.5234375 C-25.53535156 42.51441406 -26.54726563 42.50539062 -27.58984375 42.49609375 C-28.76353516 42.47869141 -28.76353516 42.47869141 -29.9609375 42.4609375 C-30.12954377 37.74722628 -30.28999005 33.03333136 -30.44311523 28.3190918 C-30.49625003 26.71778017 -30.55155413 25.11653892 -30.60913086 23.51538086 C-30.69184504 21.20441864 -30.76656979 18.89330979 -30.83984375 16.58203125 C-30.86687881 15.87445175 -30.89391388 15.16687225 -30.92176819 14.43785095 C-31.05286963 10.00060408 -30.77553318 5.82626329 -29.9609375 1.4609375 C-28.39066433 -0.10933567 -26.81823803 0.29119364 -24.6484375 0.2734375 C-23.86855469 0.25925781 -23.08867187 0.24507813 -22.28515625 0.23046875 C-19.9609375 0.4609375 -19.9609375 0.4609375 -17.83984375 1.55859375 C-17.21980469 1.85636719 -16.59976562 2.15414062 -15.9609375 2.4609375 C-15.0534375 2.0071875 -14.1459375 1.5534375 -13.2109375 1.0859375 C-8.72233731 -1.1583626 -4.76084768 -1.30875893 0 0 Z " fill="#F9F9F9" transform="translate(401.9609375,88.5390625)"/>
<path d="M0 0 C1.093125 0.00257812 2.18625 0.00515625 3.3125 0.0078125 C4.405625 0.00523438 5.49875 0.00265625 6.625 0 C9.3125 0.1328125 9.3125 0.1328125 10.3125 1.1328125 C10.4053726 2.54506296 10.42996772 3.96190184 10.42602539 5.37719727 C10.42594986 6.27805557 10.42587433 7.17891388 10.42579651 8.10707092 C10.42063522 9.08622971 10.41547394 10.06538849 10.41015625 11.07421875 C10.4087413 12.07162582 10.40732635 13.0690329 10.40586853 14.09666443 C10.40025114 17.29624374 10.38769571 20.49575419 10.375 23.6953125 C10.36998724 25.85872295 10.36542395 28.02213449 10.36132812 30.18554688 C10.35112505 35.50135024 10.33155308 40.81700389 10.3125 46.1328125 C18.8925 46.1328125 27.4725 46.1328125 36.3125 46.1328125 C36.3125 49.7628125 36.3125 53.3928125 36.3125 57.1328125 C30.77661467 57.15746025 25.240761 57.17564746 19.70483398 57.18774414 C17.8200627 57.19278494 15.93529535 57.19961748 14.05053711 57.20825195 C11.34748364 57.22032867 8.64448169 57.22604318 5.94140625 57.23046875 C5.09349014 57.23563004 4.24557404 57.24079132 3.3719635 57.24610901 C1.35178932 57.24630445 -0.66827934 57.19487461 -2.6875 57.1328125 C-4.38045345 55.43985905 -3.81499729 53.30384766 -3.81689453 50.98632812 C-3.82162277 49.33957092 -3.82162277 49.33957092 -3.82644653 47.6595459 C-3.8244223 46.46478638 -3.82239807 45.27002686 -3.8203125 44.0390625 C-3.82126923 42.82206665 -3.82222595 41.6050708 -3.82321167 40.35119629 C-3.82389372 37.77205351 -3.82203772 35.19290903 -3.81787109 32.61376953 C-3.81252322 28.65002614 -3.81781529 24.68639608 -3.82421875 20.72265625 C-3.82355797 18.22395808 -3.82227682 15.72525998 -3.8203125 13.2265625 C-3.82233673 12.03180298 -3.82436096 10.83704346 -3.82644653 9.6060791 C-3.82329437 8.50824097 -3.82014221 7.41040283 -3.81689453 6.27929688 C-3.81609894 5.3074646 -3.81530334 4.33563232 -3.81448364 3.33435059 C-3.62629851 0.0717513 -3.29743801 0.16295479 0 0 Z " fill="#FAFAFA" transform="translate(209.6875,73.8671875)"/>
<path d="M0 0 C-0.05800781 0.845625 -0.11601563 1.69125 -0.17578125 2.5625 C-0.43641751 9.11564017 -0.48619328 13.65078521 3.5078125 18.96484375 C5.30359408 21.41406418 6.6123048 23.98760597 8 26.6875 C11.13370268 32.57984549 11.13370268 32.57984549 16 37 C20.5570896 37.76202988 24.39490779 37.7723752 28.59765625 35.75 C35.85134985 30.46600857 39.95596338 20.79180682 44 13 C44.66 13 45.32 13 46 13 C45.505 12.01 45.505 12.01 45 11 C44.93049459 9.45976004 44.91547643 7.91665012 44.9375 6.375 C44.94652344 5.55773437 44.95554688 4.74046875 44.96484375 3.8984375 C44.97644531 3.27195312 44.98804688 2.64546875 45 2 C45.66 1.67 46.32 1.34 47 1 C49 2 49 2 51 4 C51.65750865 10.70957686 49.98485134 15.69645073 47.5 21.875 C46.84119397 23.55889805 46.18481777 25.24374942 45.53125 26.9296875 C45.23798828 27.66429199 44.94472656 28.39889648 44.64257812 29.15576172 C43.89032506 30.98927749 43.89032506 30.98927749 44 33 C46.39503687 34.12672175 48.7909871 35.25142558 51.1875 36.375 C52.19780273 36.85066406 52.19780273 36.85066406 53.22851562 37.3359375 C56.78222638 39.00011424 60.33496248 40.59091761 64 42 C64 42.66 64 43.32 64 44 C59.44535196 44.38762962 56.63202303 44.01285513 52.5 42 C48.42311587 40.06848129 45.57448413 39.33462049 41 40 C37.18364648 41.49032784 33.90921052 43.09078948 31 46 C29.68 46 28.36 46 27 46 C26.67 45.34 26.34 44.68 26 44 C24.22882813 43.94392578 24.22882813 43.94392578 22.421875 43.88671875 C20.86455212 43.82104851 19.30726186 43.75460153 17.75 43.6875 C16.97269531 43.66494141 16.19539063 43.64238281 15.39453125 43.61914062 C10.88603841 43.40720293 8.50929487 43.02277899 5 40 C-0.37959746 38.96857342 -5.23192802 40.10064801 -10.17578125 42.24609375 C-12.09265767 43.03829321 -13.98003408 43.54071415 -16 44 C-14.51732005 39.92921009 -12.36989623 38.86071954 -8.5625 37 C-4.70824735 35.11136488 -2.32240136 33.6528618 0 30 C-0.24234375 29.50185791 -0.4846875 29.00371582 -0.734375 28.49047852 C-1.84113689 26.18942477 -2.92051339 23.87646708 -4 21.5625 C-4.3815625 20.77939453 -4.763125 19.99628906 -5.15625 19.18945312 C-7.63532006 13.81075647 -9.01073675 8.95035618 -8 3 C-5.32313904 -0.15487185 -4.23376406 0 0 0 Z " fill="#5E5E5E" transform="translate(63,86)"/>
<path d="M0 0 C0 3.63 0 7.26 0 11 C-3.96 11.99 -7.92 12.98 -12 14 C-13.97359829 19.83290182 -14.38057803 25.24289851 -14.5625 31.375 C-14.62214895 33.17462162 -14.68572998 34.97411875 -14.75390625 36.7734375 C-14.77783447 37.56153809 -14.8017627 38.34963867 -14.82641602 39.16162109 C-15 41 -15 41 -16 42 C-19.63 42 -23.26 42 -27 42 C-27 28.14 -27 14.28 -27 0 C-23.7 0 -20.4 0 -17 0 C-16.34 1.65 -15.68 3.3 -15 5 C-14.236875 4.195625 -13.47375 3.39125 -12.6875 2.5625 C-8.33750681 -1.58516793 -5.67361411 -0.96344391 0 0 Z " fill="#F8F8F8" transform="translate(368,89)"/>
<path d="M0 0 C2.6953125 1.484375 2.6953125 1.484375 3.36376953 3.57714844 C3.47317871 4.2065332 3.58258789 4.83591797 3.6953125 5.484375 C2.98511963 5.76635742 2.27492676 6.04833984 1.54321289 6.33886719 C-1.71933507 7.63549704 -4.98076527 8.93491634 -8.2421875 10.234375 C-9.35916016 10.6778125 -10.47613281 11.12125 -11.62695312 11.578125 C-17.29680149 13.8394135 -22.90572869 16.13993816 -28.40454102 18.79394531 C-30.3046875 19.484375 -30.3046875 19.484375 -34.3046875 19.484375 C-35.46398132 15.35156782 -35.11721444 12.81865838 -33.6796875 8.796875 C-33.35742188 7.84425781 -33.03515625 6.89164063 -32.703125 5.91015625 C-30.94745246 2.86470193 -29.59440909 2.51367439 -26.3046875 1.484375 C-24.29853616 0.16031512 -22.29799592 -1.17230846 -20.3046875 -2.515625 C-12.76808949 -5.02782434 -7.23109072 -2.66842072 0 0 Z " fill="#F3F3F3" transform="translate(121.3046875,128.515625)"/>
<path d="M0 0 C0.5775 0.53625 1.155 1.0725 1.75 1.625 C2.5440625 1.88925781 3.338125 2.15351563 4.15625 2.42578125 C7.38128534 3.9168744 8.25695508 5.37799746 10 8.4375 C10.50015625 9.28957031 11.0003125 10.14164063 11.515625 11.01953125 C12.73200191 13.58701035 13.3279843 15.82663396 13.75 18.625 C6.48501893 16.87540593 -0.56929767 14.56711242 -7.625 12.125 C-8.49286133 11.82843506 -9.36072266 11.53187012 -10.25488281 11.22631836 C-14.55310284 9.72010806 -18.44593151 8.19235487 -22.25 5.625 C-16.87307597 -0.38450333 -7.68753998 -4.6979411 0 0 Z " fill="#F6F6F6" transform="translate(70.25,126.375)"/>
<path d="M0 0 C0.99 0.33 1.98 0.66 3 1 C4.5692631 8.91606051 2.18731948 14.48441666 -1.625 21.25 C-2.26381104 22.38381104 -2.26381104 22.38381104 -2.91552734 23.54052734 C-6.41956327 29.48760061 -10.19867833 35.13245222 -16 39 C-18.9609375 39.30078125 -18.9609375 39.30078125 -22.375 39.3125 C-23.49648437 39.32925781 -24.61796875 39.34601563 -25.7734375 39.36328125 C-31.73266381 38.6923272 -34.73632588 35.55536912 -38.4375 31.0625 C-44.78698918 23.01415084 -49.90733795 15.3111175 -49.2109375 4.765625 C-49.14132813 4.18296875 -49.07171875 3.6003125 -49 3 C-48.01 2.67 -47.02 2.34 -46 2 C-45.98582031 2.556875 -45.97164062 3.11375 -45.95703125 3.6875 C-45.62219723 9.04484429 -44.50912128 12.43519015 -41.45703125 16.82421875 C-39.76258109 19.35453709 -38.40051824 21.98417409 -37 24.6875 C-33.86629732 30.57984549 -33.86629732 30.57984549 -29 35 C-24.4429104 35.76202988 -20.60509221 35.7723752 -16.40234375 33.75 C-9.14865015 28.46600857 -5.04403662 18.79180682 -1 11 C-0.34 11 0.32 11 1 11 C0.505 10.01 0.505 10.01 0 9 C-0.06950541 7.45976004 -0.08452357 5.91665012 -0.0625 4.375 C-0.05347656 3.55773437 -0.04445312 2.74046875 -0.03515625 1.8984375 C-0.02355469 1.27195312 -0.01195312 0.64546875 0 0 Z " fill="#E5E5E5" transform="translate(108,88)"/>
<path d="M0 0 C2.5 1 2.5 1 5 3 C5.71551879 9.69308201 3.97758795 14.71451105 1.5 20.875 C0.84119397 22.55889805 0.18481777 24.24374942 -0.46875 25.9296875 C-0.76201172 26.66429199 -1.05527344 27.39889648 -1.35742188 28.15576172 C-2.10967494 29.98927749 -2.10967494 29.98927749 -2 32 C0.39503687 33.12672175 2.7909871 34.25142558 5.1875 35.375 C6.19780273 35.85066406 6.19780273 35.85066406 7.22851562 36.3359375 C10.78222638 38.00011424 14.33496248 39.59091761 18 41 C18 41.66 18 42.32 18 43 C13.44535196 43.38762962 10.63202303 43.01285513 6.5 41 C2.42311587 39.06848129 -0.42551587 38.33462049 -5 39 C-8.81635352 40.49032784 -12.09078948 42.09078948 -15 45 C-16.32 45 -17.64 45 -19 45 C-19.33 43.35 -19.66 41.7 -20 40 C-18.96875 39.505 -17.9375 39.01 -16.875 38.5 C-8.26715523 33.48019473 -2.58170168 22.07427804 1 13 C1.79540491 9.28243907 2.12627042 5.7960045 2 2 C1.34 2 0.68 2 0 2 C0 1.34 0 0.68 0 0 Z " fill="#535353" transform="translate(109,87)"/>
<path d="M0 0 C0.03738281 1.24136719 0.07476562 2.48273437 0.11328125 3.76171875 C0.1789595 5.40367511 0.2454062 7.04560087 0.3125 8.6875 C0.33505859 9.50412109 0.35761719 10.32074219 0.38085938 11.16210938 C0.59762873 16.02956677 1.22985366 18.87767141 4 23 C4.72431023 27.21094085 4.67396184 30.84864852 2.5 34.5625 C2.005 35.036875 1.51 35.51125 1 36 C-2.67616603 35.717218 -5.34599877 35.40875077 -8.5 33.4375 C-10.31789563 30.4834196 -10.14382912 28.48419245 -9.65234375 25.09765625 C-9 23 -9 23 -7.484375 20.796875 C-5.43814057 16.94133855 -5.43876871 13.49145924 -5.3125 9.1875 C-5.27833984 8.39923828 -5.24417969 7.61097656 -5.20898438 6.79882812 C-5.12700125 4.86636881 -5.06181155 2.93320965 -5 1 C-3 0 -3 0 0 0 Z " fill="#F3F3F3" transform="translate(131,54)"/>
<path d="M0 0 C0.2475 0.598125 0.495 1.19625 0.75 1.8125 C2.98170173 5.71797802 6.29852945 7.3065736 10.44921875 8.71875 C11.29806641 9.01136719 12.14691406 9.30398437 13.02148438 9.60546875 C14.34116211 10.04826172 14.34116211 10.04826172 15.6875 10.5 C16.54794922 10.79519531 17.40839844 11.09039062 18.29492188 11.39453125 C21.72557879 12.56824507 25.15434528 13.73605849 28.61572266 14.81640625 C29.42960449 15.07292969 30.24348633 15.32945312 31.08203125 15.59375 C31.81268799 15.81740234 32.54334473 16.04105469 33.29614258 16.27148438 C35 17 35 17 36 19 C30.75361928 19.43719839 28.15431083 18.62114543 23.42578125 16.14941406 C18.63183893 13.87788826 13.54044959 12.3778964 8.5 10.75 C7.39140625 10.38648438 6.2828125 10.02296875 5.140625 9.6484375 C2.42883518 8.76009256 -0.28466578 7.87743867 -3 7 C-2.34 6.67 -1.68 6.34 -1 6 C-1.33 4.35 -1.66 2.7 -2 1 C-1.34 0.67 -0.68 0.34 0 0 Z " fill="#E3E3E3" transform="translate(47,127)"/>
<path d="M0 0 C-6.4835642 3.04309223 -12.9833255 6.04376461 -19.5625 8.875 C-20.51253906 9.28492188 -21.46257812 9.69484375 -22.44140625 10.1171875 C-25 11 -25 11 -29 11 C-28 8 -28 8 -25.74682617 6.81738281 C-24.77205322 6.44967773 -23.79728027 6.08197266 -22.79296875 5.703125 C-21.73142578 5.30222656 -20.66988281 4.90132812 -19.57617188 4.48828125 C-17.8987793 3.87533203 -17.8987793 3.87533203 -16.1875 3.25 C-15.08083984 2.82589844 -13.97417969 2.40179688 -12.83398438 1.96484375 C-3.77955704 -1.39838576 -3.77955704 -1.39838576 0 0 Z " fill="#949494" transform="translate(118,136)"/>
<path d="M0 0 C0 5.61 0 11.22 0 17 C-1.32 16.67 -2.64 16.34 -4 16 C-4 11.05 -4 6.1 -4 1 C-2 0 -2 0 0 0 Z " fill="#FDFDFD" transform="translate(131,55)"/>
<path d="M0 0 C0 1.65 0 3.3 0 5 C-0.99 5 -1.98 5 -3 5 C-3.103125 6.11375 -3.20625 7.2275 -3.3125 8.375 C-3.539375 9.57125 -3.76625 10.7675 -4 12 C-4.99 12.66 -5.98 13.32 -7 14 C-8.72176808 10.55646384 -8.50348511 6.76579273 -8 3 C-5.32313904 -0.15487185 -4.23376406 0 0 0 Z " fill="#777777" transform="translate(63,86)"/>
<path d="M0 0 C0.66 0 1.32 0 2 0 C2.03738281 0.60328125 2.07476562 1.2065625 2.11328125 1.828125 C2.49324802 6.4473289 2.75179373 9.46934101 6 13 C6 13.66 6 14.32 6 15 C4.68 15.33 3.36 15.66 2 16 C-1.70208498 11.37239378 -1.54582216 6.66815318 -1 1 C-0.67 0.67 -0.34 0.34 0 0 Z " fill="#EDEDED" transform="translate(60,90)"/>
<path d="M0 0 C2.5 1 2.5 1 5 3 C5.58114006 8.06422052 5.27192166 12.34256061 3 17 C0.875 17.875 0.875 17.875 -1 18 C-0.68289062 17.29488281 -0.36578125 16.58976562 -0.0390625 15.86328125 C1.04538286 12.87494121 1.3964359 10.34930342 1.625 7.1875 C1.69976562 6.21167969 1.77453125 5.23585938 1.8515625 4.23046875 C1.90054688 3.49441406 1.94953125 2.75835937 2 2 C1.34 2 0.68 2 0 2 C0 1.34 0 0.68 0 0 Z " fill="#636363" transform="translate(109,87)"/>
<path d="M0 0 C0.886875 0.27585937 1.77375 0.55171875 2.6875 0.8359375 C5 1.625 5 1.625 7 2.625 C7 3.285 7 3.945 7 4.625 C1.34605369 4.97115998 -2.03006806 4.05925238 -7 1.625 C-7 0.965 -7 0.305 -7 -0.375 C-4.21076764 -1.76961618 -2.9290405 -0.92809713 0 0 Z " fill="#757575" transform="translate(120,125.375)"/>
<path d="M0 0 C0.2475 0.598125 0.495 1.19625 0.75 1.8125 C3.11688033 5.95454057 6.63544728 7.42391152 11 9 C7.45332822 10.25127906 5.27746562 9.72285053 1.75 8.5625 C0.41195312 8.13130859 0.41195312 8.13130859 -0.953125 7.69140625 C-1.62859375 7.46324219 -2.3040625 7.23507813 -3 7 C-2.34 6.67 -1.68 6.34 -1 6 C-1.33 4.35 -1.66 2.7 -2 1 C-1.34 0.67 -0.68 0.34 0 0 Z " fill="#B4B4B4" transform="translate(47,127)"/>
<path d="M0 0 C1.32 0 2.64 0 4 0 C4.99 2.31 5.98 4.62 7 7 C5.02 7.99 5.02 7.99 3 9 C0.70620251 5.55930376 0 4.27709699 0 0 Z " fill="#DCDCDC" transform="translate(63,105)"/>
<path d="M0 0 C0.99 0 1.98 0 3 0 C3 0.99 3 1.98 3 3 C-6.41002278 6.44419134 -6.41002278 6.44419134 -11 6 C-11 5.34 -11 4.68 -11 4 C-7.17010894 2.19769832 -4.21878192 1.80377759 0 2 C0 1.34 0 0.68 0 0 Z " fill="#C8C8C8" transform="translate(113,75)"/>
<path d="M0 0 C0 0.66 0 1.32 0 2 C-6.5 5 -6.5 5 -11 5 C-10 2 -10 2 -8.22265625 1.015625 C-7.15337891 0.63664063 -7.15337891 0.63664063 -6.0625 0.25 C-5.35222656 -0.01296875 -4.64195313 -0.2759375 -3.91015625 -0.546875 C-2 -1 -2 -1 0 0 Z " fill="#ADADAD" transform="translate(100,142)"/>
<path d="M0 0 C0.66 0 1.32 0 2 0 C2.66 2.97 3.32 5.94 4 9 C3.01 9.495 3.01 9.495 2 10 C0.39644899 6.49223216 -0.22036864 3.85645121 0 0 Z " fill="#FEFEFE" transform="translate(118,94)"/>
<path d="M0 0 C2.78637633 4.1795645 1.79562512 6.14668677 1 11 C0.67 11 0.34 11 0 11 C-0.07347656 10.04287109 -0.07347656 10.04287109 -0.1484375 9.06640625 C-0.22320312 8.24011719 -0.29796875 7.41382812 -0.375 6.5625 C-0.44460937 5.73878906 -0.51421875 4.91507812 -0.5859375 4.06640625 C-0.72257812 3.38449219 -0.85921875 2.70257813 -1 2 C-1.66 1.67 -2.32 1.34 -3 1 C-2.01 0.67 -1.02 0.34 0 0 Z " fill="#FDFDFD" transform="translate(116,77)"/>
<path d="M0 0 C1.31471568 0.28151087 2.62675767 0.57553339 3.9375 0.875 C4.66839844 1.03742188 5.39929688 1.19984375 6.15234375 1.3671875 C8 2 8 2 9 4 C6.69 4 4.38 4 2 4 C1.34 2.68 0.68 1.36 0 0 Z " fill="#D0D0D0" transform="translate(74,142)"/>
<path d="M0 0 C3.14737182 0.69941596 6.02588876 1.76078698 9 3 C6.21176345 4.0326802 5.1322726 4.04509293 2.25 3.0625 C1.5075 2.711875 0.765 2.36125 0 2 C0 1.34 0 0.68 0 0 Z " fill="#BFBFBF" transform="translate(49,133)"/>
</svg>
